<svg width="175" height="59.75" viewBox="0 0 237 81" fill="none" xmlns="http://www.w3.org/2000/svg">
<path fill-rule="evenodd" clip-rule="evenodd" d="M152.149 0H0V81H152.149V0ZM42.6936 48.5826C43.9266 46.236 44.543 43.4171 44.543 40.1259C44.543 36.8347 43.9266 34.0208 42.6936 31.6842C41.4706 29.3376 39.8001 27.5428 37.6822 26.2999C35.5743 25.057 33.183 24.4356 30.5082 24.4356C27.8335 24.4356 25.4372 25.057 23.3193 26.2999C21.2114 27.5428 19.5409 29.3376 18.308 31.6842C17.0849 34.0208 16.4734 36.8347 16.4734 40.1259C16.4734 43.4072 17.0849 46.2211 18.308 48.5677C19.5409 50.9043 21.2114 52.6991 23.3193 53.9519C25.4372 55.1948 27.8335 55.8163 30.5082 55.8163C33.183 55.8163 35.5743 55.1948 37.6822 53.9519C39.8001 52.709 41.4706 50.9192 42.6936 48.5826ZM37.8911 34.2644C38.6169 35.8553 38.9798 37.8092 38.9798 40.1259C38.9798 42.4427 38.6169 44.4015 37.8911 46.0023C37.1751 47.5933 36.1808 48.8013 34.9081 49.6266C33.6354 50.442 32.1688 50.8496 30.5082 50.8496C28.8477 50.8496 27.3811 50.442 26.1084 49.6266C24.8357 48.8013 23.8364 47.5933 23.1105 46.0023C22.3946 44.4015 22.0367 42.4427 22.0367 40.1259C22.0367 37.8092 22.3946 35.8553 23.1105 34.2644C23.8364 32.6636 24.8357 31.4555 26.1084 30.6401C27.3811 29.8148 28.8477 29.4022 30.5082 29.4022C32.1688 29.4022 33.6354 29.8148 34.9081 30.6401C36.1808 31.4555 37.1751 32.6636 37.8911 34.2644ZM66.9637 24.8532H60.1924V55.3986H65.502V34.3688H65.7854L74.2272 55.3092H78.1945L86.6363 34.4136H86.9196V55.3986H92.2293V24.8532H85.458L76.3898 46.9867H76.0319L66.9637 24.8532ZM128.107 32.4448C128.544 33.0812 128.887 33.8021 129.136 34.6075H134.774C134.545 33.106 134.063 31.7339 133.327 30.491C132.591 29.2481 131.652 28.1742 130.508 27.2694C129.375 26.3646 128.077 25.6685 126.615 25.1813C125.154 24.6842 123.578 24.4356 121.887 24.4356C119.889 24.4356 118.039 24.7935 116.339 25.5094C114.639 26.2154 113.157 27.2495 111.894 28.6117C110.632 29.964 109.647 31.6096 108.941 33.5485C108.245 35.4874 107.897 37.6898 107.897 40.1558C107.897 43.3773 108.489 46.1614 109.672 48.508C110.865 50.8447 112.521 52.6494 114.639 53.9221C116.767 55.1849 119.237 55.8163 122.051 55.8163C124.577 55.8163 126.814 55.3042 128.763 54.28C130.712 53.2459 132.243 51.7744 133.357 49.8653C134.47 47.9562 135.027 45.6941 135.027 43.079V39.41H122.633V43.7353H129.671C129.645 45.136 129.338 46.364 128.748 47.4192C128.132 48.513 127.252 49.3582 126.108 49.9548C124.975 50.5513 123.632 50.8496 122.081 50.8496C120.371 50.8496 118.87 50.437 117.577 49.6117C116.284 48.7765 115.275 47.5584 114.549 45.9576C113.823 44.3567 113.46 42.4029 113.46 40.0961C113.46 37.8092 113.823 35.8702 114.549 34.2793C115.285 32.6785 116.294 31.4654 117.577 30.6401C118.86 29.8148 120.321 29.4022 121.962 29.4022C122.877 29.4022 123.722 29.5215 124.497 29.7602C125.273 29.9888 125.959 30.3319 126.556 30.7893C127.162 31.2467 127.679 31.7985 128.107 32.4448Z" fill="white"/>
<rect x="155.649" y="3.5" width="77.8311" height="74" fill="white" fill-opacity="0.1" stroke="white" stroke-width="7"/>
<path d="M163.664 32.554C163.373 31.3 164.325 30.1013 165.613 30.1013H221.485C222.721 30.1013 223.661 31.2101 223.458 32.4288L222.396 38.8275C222.236 39.7924 221.402 40.5 220.423 40.5H167.099C166.169 40.5 165.362 39.8587 165.151 38.9527L163.664 32.554Z" fill="white"/>
<rect x="165.284" y="41.0473" width="56.9189" height="5.47297" fill="black"/>
<path d="M222.304 47.6149C222.304 47.6149 227.214 53.0648 226.512 54.0867C225.811 55.1085 193.196 47.6149 193.196 47.6149H222.304Z" fill="black"/>
</svg>
