<svg width="2500" height="1024" viewBox="0 0 2500 1024" fill="none" xmlns="http://www.w3.org/2000/svg">
<path d="M2500 0H0V1024H2500V0Z" fill="#001220"/>
<path d="M0 694.044L59.375 683.236C119.01 672.616 237.76 650.998 356.771 641.517C475.781 632.036 594.531 634.69 713.542 656.119C832.552 677.547 951.302 718.127 1070.83 722.868C1190.1 727.609 1309.9 696.51 1429.17 674.702C1548.7 652.895 1667.45 640.379 1786.46 647.585C1905.47 654.791 2024.22 682.098 2143.23 700.681C2262.24 719.265 2380.99 729.505 2440.63 734.436L2500 739.556V1025.9H2440.63C2380.99 1025.9 2262.24 1025.9 2143.23 1025.9C2024.22 1025.9 1905.47 1025.9 1786.46 1025.9C1667.45 1025.9 1548.7 1025.9 1429.17 1025.9C1309.9 1025.9 1190.1 1025.9 1070.83 1025.9C951.302 1025.9 832.552 1025.9 713.542 1025.9C594.531 1025.9 475.781 1025.9 356.771 1025.9C237.76 1025.9 119.01 1025.9 59.375 1025.9H0V694.044Z" fill="#69B8FA"/>
<path d="M0 737.659L59.375 732.919C119.01 728.178 237.76 718.696 356.771 720.024C475.781 721.161 594.531 733.298 713.542 742.969C832.552 752.83 951.302 760.415 1070.83 770.276C1190.1 779.947 1309.9 792.083 1429.17 781.843C1548.7 771.793 1667.45 739.556 1786.46 728.747C1905.47 718.127 2024.22 728.747 2143.23 730.643C2262.24 732.539 2380.99 725.713 2440.63 722.11L2500 718.696V1025.9H2440.63C2380.99 1025.9 2262.24 1025.9 2143.23 1025.9C2024.22 1025.9 1905.47 1025.9 1786.46 1025.9C1667.45 1025.9 1548.7 1025.9 1429.17 1025.9C1309.9 1025.9 1190.1 1025.9 1070.83 1025.9C951.302 1025.9 832.552 1025.9 713.542 1025.9C594.531 1025.9 475.781 1025.9 356.771 1025.9C237.76 1025.9 119.01 1025.9 59.375 1025.9H0V737.659Z" fill="#67A1F7"/>
<path d="M0 872.296L59.375 859.97C119.01 847.644 237.76 822.993 356.771 816.735C475.781 810.287 594.531 822.424 713.542 817.873C832.552 813.511 951.302 792.652 1070.83 791.704C1190.1 790.756 1309.9 809.719 1429.17 825.458C1548.7 841.387 1667.45 853.902 1786.46 848.024C1905.47 841.956 2024.22 817.304 2143.23 798.341C2262.24 779.378 2380.99 766.104 2440.63 759.467L2500 752.83V1025.9H2440.63C2380.99 1025.9 2262.24 1025.9 2143.23 1025.9C2024.22 1025.9 1905.47 1025.9 1786.46 1025.9C1667.45 1025.9 1548.7 1025.9 1429.17 1025.9C1309.9 1025.9 1190.1 1025.9 1070.83 1025.9C951.302 1025.9 832.552 1025.9 713.542 1025.9C594.531 1025.9 475.781 1025.9 356.771 1025.9C237.76 1025.9 119.01 1025.9 59.375 1025.9H0V872.296Z" fill="#7788ED"/>
<path d="M0 830.578L59.375 845.179C119.01 859.591 237.76 888.794 356.771 893.156C475.781 897.517 594.531 877.416 713.542 865.28C832.552 853.333 951.302 849.541 1070.83 845.369C1190.1 841.387 1309.9 836.836 1429.17 846.696C1548.7 856.557 1667.45 880.45 1786.46 887.087C1905.47 893.724 2024.22 883.105 2143.23 872.296C2262.24 861.487 2380.99 850.868 2440.63 845.369L2500 840.059V1025.9H2440.63C2380.99 1025.9 2262.24 1025.9 2143.23 1025.9C2024.22 1025.9 1905.47 1025.9 1786.46 1025.9C1667.45 1025.9 1548.7 1025.9 1429.17 1025.9C1309.9 1025.9 1190.1 1025.9 1070.83 1025.9C951.302 1025.9 832.552 1025.9 713.542 1025.9C594.531 1025.9 475.781 1025.9 356.771 1025.9C237.76 1025.9 119.01 1025.9 59.375 1025.9H0V830.578Z" fill="#8E6BDA"/>
<path d="M0 902.637L59.375 910.791C119.01 919.135 237.76 935.443 356.771 936.391C475.781 937.339 594.531 922.927 713.542 918.756C832.552 914.584 951.302 921.031 1070.83 920.083C1190.1 919.135 1309.9 910.791 1429.17 911.55C1548.7 912.119 1667.45 921.6 1786.46 929.564C1905.47 937.339 2024.22 943.787 2143.23 947.579C2262.24 951.372 2380.99 952.51 2440.63 953.268L2500 953.837V1025.9H2440.63C2380.99 1025.9 2262.24 1025.9 2143.23 1025.9C2024.22 1025.9 1905.47 1025.9 1786.46 1025.9C1667.45 1025.9 1548.7 1025.9 1429.17 1025.9C1309.9 1025.9 1190.1 1025.9 1070.83 1025.9C951.302 1025.9 832.552 1025.9 713.542 1025.9C594.531 1025.9 475.781 1025.9 356.771 1025.9C237.76 1025.9 119.01 1025.9 59.375 1025.9H0V902.637Z" fill="#A446BE"/>
<path d="M0 226.5H59.375C119.01 226.5 237.76 226.5 356.771 228.45C475.781 230.55 594.531 234.45 713.542 245.7C832.552 256.95 951.302 275.55 1070.83 270C1190.1 264.45 1309.9 235.05 1429.17 241.95C1548.7 249 1667.45 292.5 1786.46 305.7C1905.47 319.05 2024.22 301.95 2143.23 296.55C2262.24 291 2380.99 297 2440.63 300L2500 303V0H2440.63C2380.99 0 2262.24 0 2143.23 0C2024.22 0 1905.47 0 1786.46 0C1667.45 0 1548.7 0 1429.17 0C1309.9 0 1190.1 0 1070.83 0C951.302 0 832.552 0 713.542 0C594.531 0 475.781 0 356.771 0C237.76 0 119.01 0 59.375 0H0V226.5Z" fill="#69B8FA"/>
<path d="M0 258L59.375 244.05C119.01 229.95 237.76 202.05 356.771 199.5C475.781 196.95 594.531 220.05 713.542 231.45C832.552 243 951.302 243 1070.83 238.5C1190.1 234 1309.9 225 1429.17 228.3C1548.7 231.45 1667.45 247.05 1786.46 241.05C1905.47 235.05 2024.22 207.45 2143.23 207C2262.24 206.55 2380.99 232.95 2440.63 246.3L2500 259.5V0H2440.63C2380.99 0 2262.24 0 2143.23 0C2024.22 0 1905.47 0 1786.46 0C1667.45 0 1548.7 0 1429.17 0C1309.9 0 1190.1 0 1070.83 0C951.302 0 832.552 0 713.542 0C594.531 0 475.781 0 356.771 0C237.76 0 119.01 0 59.375 0H0V258Z" fill="#67A1F7"/>
<path d="M0 150L59.375 154.05C119.01 157.95 237.76 166.05 356.771 163.95C475.781 162 594.531 150 713.542 142.2C832.552 134.55 951.302 130.95 1070.83 143.55C1190.1 156 1309.9 184.5 1429.17 194.25C1548.7 204 1667.45 195 1786.46 186C1905.47 177 2024.22 168 2143.23 157.8C2262.24 147.45 2380.99 136.05 2440.63 130.2L2500 124.5V0H2440.63C2380.99 0 2262.24 0 2143.23 0C2024.22 0 1905.47 0 1786.46 0C1667.45 0 1548.7 0 1429.17 0C1309.9 0 1190.1 0 1070.83 0C951.302 0 832.552 0 713.542 0C594.531 0 475.781 0 356.771 0C237.76 0 119.01 0 59.375 0H0V150Z" fill="#7788ED"/>
<path d="M0 132L59.375 127.95C119.01 124.05 237.76 115.95 356.771 112.95C475.781 109.95 594.531 112.05 713.542 106.8C832.552 101.55 951.302 88.95 1070.83 92.25C1190.1 95.55 1309.9 114.45 1429.17 120.3C1548.7 126 1667.45 118.5 1786.46 121.95C1905.47 125.55 2024.22 139.95 2143.23 140.7C2262.24 141.45 2380.99 128.55 2440.63 121.95L2500 115.5V0H2440.63C2380.99 0 2262.24 0 2143.23 0C2024.22 0 1905.47 0 1786.46 0C1667.45 0 1548.7 0 1429.17 0C1309.9 0 1190.1 0 1070.83 0C951.302 0 832.552 0 713.542 0C594.531 0 475.781 0 356.771 0C237.76 0 119.01 0 59.375 0H0V132Z" fill="#8E6BDA"/>
<path d="M0 39L59.375 41.25C119.01 43.5 237.76 48 356.771 57.45C475.781 67.05 594.531 81.45 713.542 79.5C832.552 77.55 951.302 58.95 1070.83 55.5C1190.1 52.05 1309.9 63.45 1429.17 67.2C1548.7 70.95 1667.45 67.05 1786.46 64.5C1905.47 61.95 2024.22 61.05 2143.23 61.05C2262.24 61.05 2380.99 61.95 2440.63 62.55L2500 63V0H2440.63C2380.99 0 2262.24 0 2143.23 0C2024.22 0 1905.47 0 1786.46 0C1667.45 0 1548.7 0 1429.17 0C1309.9 0 1190.1 0 1070.83 0C951.302 0 832.552 0 713.542 0C594.531 0 475.781 0 356.771 0C237.76 0 119.01 0 59.375 0H0V39Z" fill="#A446BE"/>
</svg>
